# xmcd CD database file
# Generated: Sat Jun 22 23:39:30 2002 by WSPse's MP3c
#
# Track frame offsets:
#       150
#       19309
#       34969
#       52930
#       69664
#       87715
#       103862
#       116727
#       133115
#       145686
#       159555
#       177757
#
# Disc length: 2530 seconds
#
# Revision: 1
# Processed by: cddbd v1.4PL0 Copyright (c) Steve Scherf et al.
# Submitted via: MP3c 0.27
#   WSPse pp3c-0.27 (NLS) - ENGLISH (Jun 22 2002)
#
DISCID=ac09e00c
DTITLE=Richard Dobson - Hum Of The Wheels
DYEAR=1900
DGENRE=
TTITLE0=Hum Of The Wheels
TTITLE1=Trying To Keep My Feet On The Ground
TTITLE2=Magic And Danger
TTITLE3=The Fairest Outlaw
TTITLE4=I Give Myself Away
TTITLE5=Whoa Back
TTITLE6=It's The Women Who Choose
TTITLE7=Who Killed Jack Rabbit
TTITLE8=Coyote Waltz
TTITLE9=Ain't It Like A Circle
TTITLE10=Sant'Anna
TTITLE11=Next Year Better
EXTD=
EXTT0=
EXTT1=
EXTT2=
EXTT3=
EXTT4=
EXTT5=
EXTT6=
EXTT7=
EXTT8=
EXTT9=
EXTT10=
EXTT11=
PLAYORDER=
